# xmcd
# Track frame offsets:
# 150
# 16493
# 31705
# 50367
# 66075
# 81176
# 98489
# 115391
# 132855
# 151723
# 169389
# 184900
#
# Disc length: 2666 seconds
# Revision: 0
# Processed by: cddbd v1.5.2PL0 Copyright (c) Steve Scherf et al.
# Submitted via: VisiTrax 2.11.2.271 - For more info visit www.synapsa.com
#
DISCID=910a680c
DTITLE=Altmann, Chris - Que Paso
DYEAR=2010
DGENRE=Country
TTITLE0=Who Knows Where
TTITLE1=Deadly Nightshade
TTITLE2=Other Side of the Mountain
TTITLE3=Zig Zag Rag
TTITLE4=Love Like This
TTITLE5=Hard Tac
TTITLE6=Muchos Grandes
TTITLE7=All the Things You Do
TTITLE8=There's a Fire
TTITLE9=Bad News
TTITLE10=Your Good Side
TTITLE11=Hume Highway Blues
EXTD=
EXTT0=
EXTT1=
EXTT2=
EXTT3=
EXTT4=
EXTT5=
EXTT6=
EXTT7=
EXTT8=
EXTT9=
EXTT10=
EXTT11=
PLAYORDER=
